<svg width="15" height="22" viewBox="0 0 15 22" fill="none" xmlns="http://www.w3.org/2000/svg">
<g id="img_418803">
<g id="Group">
<path id="Vector" d="M14.5411 3.60441V2.56436C14.5411 1.41809 13.9995 0.486466 13.2746 0.484253L2.1579 0.493104C1.47882 0.539575 0.941391 1.06845 0.940002 2.16383L0.945557 15.0428C0.97472 16.1492 1.54826 17.0366 2.25511 17.0366H2.95364V17.0432L5.50609 17.0366C5.86993 17.0366 6.16295 16.8418 6.16295 16.2665C6.16295 15.6911 5.86855 15.3924 5.50609 15.3924L2.72311 15.399C2.21623 15.3504 2.04403 15.1645 1.98848 14.5161L1.98431 2.99808C2.05236 2.39618 2.23567 2.21694 2.71478 2.16604L13.5023 2.15719V2.17932L12.6441 2.17047C13.2773 2.19259 13.4523 2.34307 13.5023 3.19724L13.4954 14.4099C13.4565 15.222 13.3023 15.3791 12.7441 15.4101L8.25158 15.419C8.10437 15.3393 7.95023 15.3747 7.80719 15.5163C7.70859 15.5849 7.62943 15.6911 7.57666 15.8306L5.00477 19.8668C4.74785 20.274 4.65064 20.9113 4.90756 21.3163C5.16447 21.7234 5.58108 21.5464 5.8366 21.1392L8.44322 17.0454L12.5719 17.0388V17.0366H13.2704C13.9967 17.0366 14.5397 16.105 14.5397 14.9543V13.9142H14.5411L14.548 3.60884L14.5411 3.60441ZM13.4926 15.4101H13.1579L13.4926 15.4057V15.4101ZM12.6413 2.17268C12.5135 2.16825 12.3705 2.16825 12.2052 2.16825L12.6413 2.17268ZM8.52376 8.78697C8.52376 8.10098 8.17242 7.54554 7.73914 7.54554C7.30586 7.54554 6.95452 8.10098 6.95452 8.78697C6.95452 9.47296 7.30586 10.0284 7.73914 10.0284C8.17242 10.0284 8.52376 9.47296 8.52376 8.78697ZM4.07711 8.78697C4.07711 9.47296 4.42845 10.0284 4.86173 10.0284C5.29501 10.0284 5.64635 9.47296 5.64635 8.78697C5.64635 8.10098 5.29501 7.54554 4.86173 7.54554C4.42845 7.54554 4.07711 8.10098 4.07711 8.78697ZM11.4012 8.78697C11.4012 8.10098 11.0498 7.54554 10.6166 7.54554C10.1833 7.54554 9.83193 8.10098 9.83193 8.78697C9.83193 9.47296 10.1833 10.0284 10.6166 10.0284C11.0498 10.0284 11.4012 9.47296 11.4012 8.78697Z" fill="#BDBDBD"/>
</g>
</g>
</svg>
