<svg width="16" height="23" viewBox="0 0 16 23" fill="none" xmlns="http://www.w3.org/2000/svg">
<g id="Ei-like">
<path id="Vector" d="M15.436 11.5449C15.436 9.98379 14.6327 9.16605 13.546 9.16605H10.3802C10.6165 7.82794 10.711 6.56417 10.711 5.44907C10.711 1.13738 9.95498 0.2453 9.29348 0.2453C8.86823 0.2453 8.53748 0.31964 8.11223 0.691338C7.97048 0.840018 7.92323 0.988697 7.87598 1.21172L7.40348 5.22605C6.88373 7.30756 5.60798 9.16606 4.56848 10.4298V21.0604C4.94648 21.0604 5.32448 21.3578 5.79698 21.7295C6.31673 22.1012 6.83648 22.5472 7.40348 22.5472H11.8922C12.8372 22.5472 13.546 21.3578 13.546 20.317C13.546 20.094 13.546 19.9453 13.4987 19.7966C14.0657 19.4249 14.491 18.6815 14.491 17.7151C14.491 17.2691 14.4437 16.8974 14.3492 16.5257C14.7272 16.154 15.058 15.4849 15.058 14.7415C15.058 14.2955 14.9162 13.8495 14.7745 13.4778C15.1525 13.0317 15.436 12.2883 15.436 11.5449ZM14.4437 11.5449C14.4437 12.5113 13.8295 12.5857 13.735 13.0317C13.6405 13.5521 14.113 13.7008 14.113 14.5928C14.113 15.4849 13.4042 15.4849 13.3097 16.0053C13.2152 16.6 13.546 16.7487 13.546 17.6408V17.7895C13.4515 18.5328 12.7427 18.6072 12.601 18.9045C12.4592 19.2762 12.601 19.4249 12.601 20.2427C12.601 20.6887 12.2702 20.9861 11.8922 20.9861H7.40348C7.02548 20.9861 6.64748 20.6887 6.17498 20.317C5.79698 20.0196 5.41898 19.7223 5.04098 19.5736V11.7679C6.22223 10.3555 7.73423 8.27398 8.30123 5.67209V5.52341L8.72648 1.80643C8.91548 1.73209 9.05723 1.73209 9.29348 1.73209C9.38798 1.73209 9.76598 2.62417 9.76598 5.44907C9.76598 6.56417 9.62423 7.7536 9.38798 9.16605H9.29348C9.00998 9.16605 8.82098 9.46341 8.82098 9.90945C8.82098 10.3555 9.00998 10.6528 9.29348 10.6528H13.546C14.0185 10.6528 14.4437 11.0245 14.4437 11.5449Z" fill="#BDBDBD"/>
<path id="Vector_2" d="M4.09598 22.5472H1.26098C0.741229 22.5472 0.315979 21.8782 0.315979 21.0604V10.6529C0.315979 9.83513 0.741229 9.16608 1.26098 9.16608H4.09598C4.61573 9.16608 5.04098 9.83513 5.04098 10.6529V21.0604C5.04098 21.8782 4.61573 22.5472 4.09598 22.5472ZM1.26098 10.6529V21.0604H4.09598V10.6529H1.26098Z" fill="#BDBDBD"/>
</g>
</svg>
